<?xml version="1.0" encoding="UTF-8" standalone="no"?><svg xmlns="http://www.w3.org/2000/svg" xmlns:xlink="http://www.w3.org/1999/xlink" contentStyleType="text/css" height="1094px" preserveAspectRatio="none" style="width:608px;height:1094px;background:#FFFFFF;" version="1.1" viewBox="0 0 608 1094" width="608px" zoomAndPan="magnify"><defs/><g><rect fill="#FFFFFF" height="955.1675" style="stroke:#181818;stroke-width:1.0;" width="10" x="102" y="82.8745"/><rect fill="#FFFFFF" height="273.749" style="stroke:#181818;stroke-width:1.0;" width="10" x="107" y="194.5034"/><rect fill="#FFFFFF" height="83.1201" style="stroke:#181818;stroke-width:1.0;" width="10" x="112" y="234.2578"/><rect fill="#FFFFFF" height="83.1201" style="stroke:#181818;stroke-width:1.0;" width="10" x="112" y="364.1323"/><rect fill="#FFFFFF" height="438.2808" style="stroke:#181818;stroke-width:1.0;" width="10" x="107" y="544.7612"/><rect fill="#FFFFFF" height="377.5264" style="stroke:#181818;stroke-width:1.0;" width="10" x="112" y="584.5156"/><rect fill="#FFFFFF" height="25" style="stroke:#181818;stroke-width:1.0;" width="10" x="117" y="720.7788"/><rect fill="#FFFFFF" height="25" style="stroke:#181818;stroke-width:1.0;" width="10" x="117" y="792.5332"/><rect fill="#FFFFFF" height="25" style="stroke:#181818;stroke-width:1.0;" width="10" x="117" y="864.2876"/><rect fill="#FFFFFF" height="14" style="stroke:#181818;stroke-width:1.0;" width="10" x="355" y="116.9946"/><rect fill="#FFFFFF" height="14" style="stroke:#181818;stroke-width:1.0;" width="10" x="355" y="928.042"/><rect fill="#FFFFFF" height="861.293" style="stroke:#181818;stroke-width:1.0;" width="10" x="430" y="162.749"/><rect fill="#FFFFFF" height="495.0352" style="stroke:#181818;stroke-width:1.0;" width="10" x="435" y="508.0068"/><rect fill="#FFFFFF" height="16.3657" style="stroke:#181818;stroke-width:1.0;" width="10" x="579" y="281.0122"/><rect fill="#FFFFFF" height="16.3657" style="stroke:#181818;stroke-width:1.0;" width="10" x="579" y="410.8867"/><rect fill="#FFFFFF" height="14" style="stroke:#181818;stroke-width:1.0;" width="10" x="579" y="621.27"/><rect fill="#FFFFFF" height="14" style="stroke:#181818;stroke-width:1.0;" width="10" x="579" y="667.0244"/><line style="stroke:#181818;stroke-width:0.5;stroke-dasharray:5.0,5.0;" x1="34" x2="34" y1="39.1201" y2="1056.042"/><line style="stroke:#181818;stroke-width:0.5;stroke-dasharray:5.0,5.0;" x1="107" x2="107" y1="81.1802" y2="1056.042"/><line style="stroke:#181818;stroke-width:0.5;stroke-dasharray:5.0,5.0;" x1="360" x2="360" y1="39.1201" y2="1056.042"/><line style="stroke:#181818;stroke-width:0.5;stroke-dasharray:5.0,5.0;" x1="435" x2="435" y1="39.1201" y2="1056.042"/><line style="stroke:#181818;stroke-width:0.5;stroke-dasharray:5.0,5.0;" x1="583.5" x2="583.5" y1="409.1924" y2="1056.042"/><rect fill="#E2E2F0" height="33.1201" rx="2.5" ry="2.5" style="stroke:#181818;stroke-width:0.5;" width="58" x="5" y="5"/><text fill="#000000" font-family="sans-serif" font-size="14" lengthAdjust="spacing" textLength="44" x="12" y="28.0439">repaint</text><rect fill="#E2E2F0" height="33.1201" rx="2.5" ry="2.5" style="stroke:#181818;stroke-width:0.5;" width="58" x="5" y="1055.042"/><text fill="#000000" font-family="sans-serif" font-size="14" lengthAdjust="spacing" textLength="44" x="12" y="1078.0859">repaint</text><rect fill="#E2E2F0" height="33.1201" rx="2.5" ry="2.5" style="stroke:#181818;stroke-width:0.5;" width="52" x="81" y="1055.042"/><text fill="#000000" font-family="sans-serif" font-size="14" lengthAdjust="spacing" textLength="38" x="88" y="1078.0859">Game</text><rect fill="#E2E2F0" height="33.1201" rx="2.5" ry="2.5" style="stroke:#181818;stroke-width:0.5;" width="42" x="339" y="5"/><text fill="#000000" font-family="sans-serif" font-size="14" lengthAdjust="spacing" textLength="28" x="346" y="28.0439">SQL</text><rect fill="#E2E2F0" height="33.1201" rx="2.5" ry="2.5" style="stroke:#181818;stroke-width:0.5;" width="42" x="339" y="1055.042"/><text fill="#000000" font-family="sans-serif" font-size="14" lengthAdjust="spacing" textLength="28" x="346" y="1078.0859">SQL</text><rect fill="#E2E2F0" height="33.1201" rx="2.5" ry="2.5" style="stroke:#181818;stroke-width:0.5;" width="88" x="391" y="5"/><text fill="#000000" font-family="sans-serif" font-size="14" lengthAdjust="spacing" textLength="74" x="398" y="28.0439">Anonymous</text><rect fill="#E2E2F0" height="33.1201" rx="2.5" ry="2.5" style="stroke:#181818;stroke-width:0.5;" width="88" x="391" y="1055.042"/><text fill="#000000" font-family="sans-serif" font-size="14" lengthAdjust="spacing" textLength="74" x="398" y="1078.0859">Anonymous</text><rect fill="#E2E2F0" height="33.1201" rx="2.5" ry="2.5" style="stroke:#181818;stroke-width:0.5;" width="37" x="565.5" y="1055.042"/><text fill="#000000" font-family="sans-serif" font-size="14" lengthAdjust="spacing" textLength="23" x="572.5" y="1078.0859">Tile</text><rect fill="#FFFFFF" height="955.1675" style="stroke:#181818;stroke-width:1.0;" width="10" x="102" y="82.8745"/><rect fill="#FFFFFF" height="273.749" style="stroke:#181818;stroke-width:1.0;" width="10" x="107" y="194.5034"/><rect fill="#FFFFFF" height="83.1201" style="stroke:#181818;stroke-width:1.0;" width="10" x="112" y="234.2578"/><rect fill="#FFFFFF" height="83.1201" style="stroke:#181818;stroke-width:1.0;" width="10" x="112" y="364.1323"/><rect fill="#FFFFFF" height="438.2808" style="stroke:#181818;stroke-width:1.0;" width="10" x="107" y="544.7612"/><rect fill="#FFFFFF" height="377.5264" style="stroke:#181818;stroke-width:1.0;" width="10" x="112" y="584.5156"/><rect fill="#FFFFFF" height="25" style="stroke:#181818;stroke-width:1.0;" width="10" x="117" y="720.7788"/><rect fill="#FFFFFF" height="25" style="stroke:#181818;stroke-width:1.0;" width="10" x="117" y="792.5332"/><rect fill="#FFFFFF" height="25" style="stroke:#181818;stroke-width:1.0;" width="10" x="117" y="864.2876"/><rect fill="#FFFFFF" height="14" style="stroke:#181818;stroke-width:1.0;" width="10" x="355" y="116.9946"/><rect fill="#FFFFFF" height="14" style="stroke:#181818;stroke-width:1.0;" width="10" x="355" y="928.042"/><rect fill="#FFFFFF" height="861.293" style="stroke:#181818;stroke-width:1.0;" width="10" x="430" y="162.749"/><rect fill="#FFFFFF" height="495.0352" style="stroke:#181818;stroke-width:1.0;" width="10" x="435" y="508.0068"/><rect fill="#FFFFFF" height="16.3657" style="stroke:#181818;stroke-width:1.0;" width="10" x="579" y="281.0122"/><rect fill="#FFFFFF" height="16.3657" style="stroke:#181818;stroke-width:1.0;" width="10" x="579" y="410.8867"/><rect fill="#FFFFFF" height="14" style="stroke:#181818;stroke-width:1.0;" width="10" x="579" y="621.27"/><rect fill="#FFFFFF" height="14" style="stroke:#181818;stroke-width:1.0;" width="10" x="579" y="667.0244"/><polygon fill="#181818" points="69,68.8745,79,72.8745,69,76.8745,73,72.8745" style="stroke:#181818;stroke-width:1.0;"/><line style="stroke:#181818;stroke-width:1.0;" x1="34" x2="75" y1="72.8745" y2="72.8745"/><text fill="#000000" font-family="sans-serif" font-size="13" lengthAdjust="spacing" textLength="23" x="41" y="68.0181">new</text><rect fill="#E2E2F0" height="33.1201" rx="2.5" ry="2.5" style="stroke:#181818;stroke-width:0.5;" width="52" x="81" y="49.1201"/><text fill="#000000" font-family="sans-serif" font-size="14" lengthAdjust="spacing" textLength="38" x="88" y="72.1641">Game</text><polygon fill="#181818" points="343,112.9946,353,116.9946,343,120.9946,347,116.9946" style="stroke:#181818;stroke-width:1.0;"/><line style="stroke:#181818;stroke-width:1.0;" x1="112" x2="349" y1="116.9946" y2="116.9946"/><text fill="#000000" font-family="sans-serif" font-size="13" lengthAdjust="spacing" textLength="128" x="119" y="112.1382">connect 连接到数据库</text><polygon fill="#181818" points="123,126.9946,113,130.9946,123,134.9946,119,130.9946" style="stroke:#181818;stroke-width:1.0;"/><line style="stroke:#181818;stroke-width:1.0;stroke-dasharray:2.0,2.0;" x1="117" x2="359" y1="130.9946" y2="130.9946"/><polygon fill="#181818" points="418,158.749,428,162.749,418,166.749,422,162.749" style="stroke:#181818;stroke-width:1.0;"/><line style="stroke:#181818;stroke-width:1.0;" x1="112" x2="424" y1="162.749" y2="162.749"/><text fill="#000000" font-family="sans-serif" font-size="13" lengthAdjust="spacing" textLength="169" x="119" y="157.8926">mousePressed 监听鼠标单击</text><polygon fill="#181818" points="128,190.5034,118,194.5034,128,198.5034,124,194.5034" style="stroke:#181818;stroke-width:1.0;"/><line style="stroke:#181818;stroke-width:1.0;" x1="122" x2="429" y1="194.5034" y2="194.5034"/><text fill="#000000" font-family="sans-serif" font-size="13" lengthAdjust="spacing" textLength="121" x="134" y="189.647">initGame 初始化游戏</text><line style="stroke:#181818;stroke-width:1.0;" x1="117" x2="164" y1="221.2578" y2="221.2578"/><line style="stroke:#181818;stroke-width:1.0;" x1="164" x2="164" y1="221.2578" y2="234.2578"/><line style="stroke:#181818;stroke-width:1.0;" x1="123" x2="164" y1="234.2578" y2="234.2578"/><polygon fill="#181818" points="133,230.2578,123,234.2578,133,238.2578,129,234.2578" style="stroke:#181818;stroke-width:1.0;"/><text fill="#000000" font-family="sans-serif" font-size="13" lengthAdjust="spacing" textLength="171" x="129" y="216.4014">addRandomTile 添加初始数字</text><polygon fill="#181818" points="553.5,267.0122,563.5,271.0122,553.5,275.0122,557.5,271.0122" style="stroke:#181818;stroke-width:1.0;"/><line style="stroke:#181818;stroke-width:1.0;" x1="122" x2="559.5" y1="271.0122" y2="271.0122"/><text fill="#000000" font-family="sans-serif" font-size="13" lengthAdjust="spacing" textLength="23" x="129" y="266.1558">new</text><rect fill="#E2E2F0" height="33.1201" rx="2.5" ry="2.5" style="stroke:#181818;stroke-width:0.5;" width="37" x="565.5" y="247.2578"/><text fill="#000000" font-family="sans-serif" font-size="14" lengthAdjust="spacing" textLength="23" x="572.5" y="270.3018">Tile</text><polygon fill="#181818" points="133,293.3779,123,297.3779,133,301.3779,129,297.3779" style="stroke:#181818;stroke-width:1.0;"/><line style="stroke:#181818;stroke-width:1.0;stroke-dasharray:2.0,2.0;" x1="127" x2="583" y1="297.3779" y2="297.3779"/><line style="stroke:#181818;stroke-width:1.0;stroke-dasharray:2.0,2.0;" x1="122" x2="164" y1="316.3779" y2="316.3779"/><line style="stroke:#181818;stroke-width:1.0;stroke-dasharray:2.0,2.0;" x1="164" x2="164" y1="316.3779" y2="329.3779"/><line style="stroke:#181818;stroke-width:1.0;stroke-dasharray:2.0,2.0;" x1="117" x2="164" y1="329.3779" y2="329.3779"/><polygon fill="#181818" points="127,325.3779,117,329.3779,127,333.3779,123,329.3779" style="stroke:#181818;stroke-width:1.0;"/><line style="stroke:#181818;stroke-width:1.0;" x1="117" x2="164" y1="351.1323" y2="351.1323"/><line style="stroke:#181818;stroke-width:1.0;" x1="164" x2="164" y1="351.1323" y2="364.1323"/><line style="stroke:#181818;stroke-width:1.0;" x1="123" x2="164" y1="364.1323" y2="364.1323"/><polygon fill="#181818" points="133,360.1323,123,364.1323,133,368.1323,129,364.1323" style="stroke:#181818;stroke-width:1.0;"/><text fill="#000000" font-family="sans-serif" font-size="13" lengthAdjust="spacing" textLength="210" x="129" y="346.2759">addRandomTile 添加第二个初始数字</text><polygon fill="#181818" points="553.5,396.8867,563.5,400.8867,553.5,404.8867,557.5,400.8867" style="stroke:#181818;stroke-width:1.0;"/><line style="stroke:#181818;stroke-width:1.0;" x1="122" x2="559.5" y1="400.8867" y2="400.8867"/><text fill="#000000" font-family="sans-serif" font-size="13" lengthAdjust="spacing" textLength="23" x="129" y="396.0303">new</text><rect fill="#E2E2F0" height="33.1201" rx="2.5" ry="2.5" style="stroke:#181818;stroke-width:0.5;" width="37" x="565.5" y="377.1323"/><text fill="#000000" font-family="sans-serif" font-size="14" lengthAdjust="spacing" textLength="23" x="572.5" y="400.1763">Tile</text><polygon fill="#181818" points="133,423.2524,123,427.2524,133,431.2524,129,427.2524" style="stroke:#181818;stroke-width:1.0;"/><line style="stroke:#181818;stroke-width:1.0;stroke-dasharray:2.0,2.0;" x1="127" x2="583" y1="427.2524" y2="427.2524"/><line style="stroke:#181818;stroke-width:1.0;stroke-dasharray:2.0,2.0;" x1="122" x2="164" y1="446.2524" y2="446.2524"/><line style="stroke:#181818;stroke-width:1.0;stroke-dasharray:2.0,2.0;" x1="164" x2="164" y1="446.2524" y2="459.2524"/><line style="stroke:#181818;stroke-width:1.0;stroke-dasharray:2.0,2.0;" x1="117" x2="164" y1="459.2524" y2="459.2524"/><polygon fill="#181818" points="127,455.2524,117,459.2524,127,463.2524,123,459.2524" style="stroke:#181818;stroke-width:1.0;"/><polygon fill="#181818" points="418,464.2524,428,468.2524,418,472.2524,422,468.2524" style="stroke:#181818;stroke-width:1.0;"/><line style="stroke:#181818;stroke-width:1.0;stroke-dasharray:2.0,2.0;" x1="112" x2="424" y1="468.2524" y2="468.2524"/><line style="stroke:#181818;stroke-width:1.0;" x1="440" x2="487" y1="495.0068" y2="495.0068"/><line style="stroke:#181818;stroke-width:1.0;" x1="487" x2="487" y1="495.0068" y2="508.0068"/><line style="stroke:#181818;stroke-width:1.0;" x1="446" x2="487" y1="508.0068" y2="508.0068"/><polygon fill="#181818" points="456,504.0068,446,508.0068,456,512.0068,452,508.0068" style="stroke:#181818;stroke-width:1.0;"/><text fill="#000000" font-family="sans-serif" font-size="13" lengthAdjust="spacing" textLength="125" x="452" y="490.1504">keyPressed 监听键盘</text><polygon fill="#181818" points="128,540.7612,118,544.7612,128,548.7612,124,544.7612" style="stroke:#181818;stroke-width:1.0;"/><line style="stroke:#181818;stroke-width:1.0;" x1="122" x2="434" y1="544.7612" y2="544.7612"/><text fill="#000000" font-family="sans-serif" font-size="13" lengthAdjust="spacing" textLength="141" x="134" y="539.9048">moveUp 以方向上键为例</text><line style="stroke:#181818;stroke-width:1.0;" x1="117" x2="164" y1="571.5156" y2="571.5156"/><line style="stroke:#181818;stroke-width:1.0;" x1="164" x2="164" y1="571.5156" y2="584.5156"/><line style="stroke:#181818;stroke-width:1.0;" x1="123" x2="164" y1="584.5156" y2="584.5156"/><polygon fill="#181818" points="133,580.5156,123,584.5156,133,588.5156,129,584.5156" style="stroke:#181818;stroke-width:1.0;"/><text fill="#000000" font-family="sans-serif" font-size="13" lengthAdjust="spacing" textLength="30" x="129" y="566.6592">move</text><polygon fill="#181818" points="567,617.27,577,621.27,567,625.27,571,621.27" style="stroke:#181818;stroke-width:1.0;"/><line style="stroke:#181818;stroke-width:1.0;" x1="122" x2="573" y1="621.27" y2="621.27"/><text fill="#000000" font-family="sans-serif" font-size="13" lengthAdjust="spacing" textLength="179" x="129" y="616.4136">canMergeWith 判断是否可合成</text><polygon fill="#181818" points="133,631.27,123,635.27,133,639.27,129,635.27" style="stroke:#181818;stroke-width:1.0;"/><line style="stroke:#181818;stroke-width:1.0;stroke-dasharray:2.0,2.0;" x1="127" x2="583" y1="635.27" y2="635.27"/><polygon fill="#181818" points="567,663.0244,577,667.0244,567,671.0244,571,667.0244" style="stroke:#181818;stroke-width:1.0;"/><line style="stroke:#181818;stroke-width:1.0;" x1="122" x2="573" y1="667.0244" y2="667.0244"/><text fill="#000000" font-family="sans-serif" font-size="13" lengthAdjust="spacing" textLength="119" x="129" y="662.168">mergeWith 与之合成</text><polygon fill="#181818" points="133,677.0244,123,681.0244,133,685.0244,129,681.0244" style="stroke:#181818;stroke-width:1.0;"/><line style="stroke:#181818;stroke-width:1.0;stroke-dasharray:2.0,2.0;" x1="127" x2="583" y1="681.0244" y2="681.0244"/><line style="stroke:#181818;stroke-width:1.0;" x1="122" x2="169" y1="707.7788" y2="707.7788"/><line style="stroke:#181818;stroke-width:1.0;" x1="169" x2="169" y1="707.7788" y2="720.7788"/><line style="stroke:#181818;stroke-width:1.0;" x1="128" x2="169" y1="720.7788" y2="720.7788"/><polygon fill="#181818" points="138,716.7788,128,720.7788,138,724.7788,134,720.7788" style="stroke:#181818;stroke-width:1.0;"/><text fill="#000000" font-family="sans-serif" font-size="13" lengthAdjust="spacing" textLength="205" x="134" y="702.9224">clearMerged 清除方块的已合并属性</text><line style="stroke:#181818;stroke-width:1.0;stroke-dasharray:2.0,2.0;" x1="127" x2="169" y1="744.7788" y2="744.7788"/><line style="stroke:#181818;stroke-width:1.0;stroke-dasharray:2.0,2.0;" x1="169" x2="169" y1="744.7788" y2="757.7788"/><line style="stroke:#181818;stroke-width:1.0;stroke-dasharray:2.0,2.0;" x1="122" x2="169" y1="757.7788" y2="757.7788"/><polygon fill="#181818" points="132,753.7788,122,757.7788,132,761.7788,128,757.7788" style="stroke:#181818;stroke-width:1.0;"/><line style="stroke:#181818;stroke-width:1.0;" x1="122" x2="169" y1="779.5332" y2="779.5332"/><line style="stroke:#181818;stroke-width:1.0;" x1="169" x2="169" y1="779.5332" y2="792.5332"/><line style="stroke:#181818;stroke-width:1.0;" x1="128" x2="169" y1="792.5332" y2="792.5332"/><polygon fill="#181818" points="138,788.5332,128,792.5332,138,796.5332,134,792.5332" style="stroke:#181818;stroke-width:1.0;"/><text fill="#000000" font-family="sans-serif" font-size="13" lengthAdjust="spacing" textLength="171" x="134" y="774.6768">addRandomTile 添加新的数字</text><line style="stroke:#181818;stroke-width:1.0;stroke-dasharray:2.0,2.0;" x1="127" x2="169" y1="816.5332" y2="816.5332"/><line style="stroke:#181818;stroke-width:1.0;stroke-dasharray:2.0,2.0;" x1="169" x2="169" y1="816.5332" y2="829.5332"/><line style="stroke:#181818;stroke-width:1.0;stroke-dasharray:2.0,2.0;" x1="122" x2="169" y1="829.5332" y2="829.5332"/><polygon fill="#181818" points="132,825.5332,122,829.5332,132,833.5332,128,829.5332" style="stroke:#181818;stroke-width:1.0;"/><line style="stroke:#181818;stroke-width:1.0;" x1="122" x2="169" y1="851.2876" y2="851.2876"/><line style="stroke:#181818;stroke-width:1.0;" x1="169" x2="169" y1="851.2876" y2="864.2876"/><line style="stroke:#181818;stroke-width:1.0;" x1="128" x2="169" y1="864.2876" y2="864.2876"/><polygon fill="#181818" points="138,860.2876,128,864.2876,138,868.2876,134,864.2876" style="stroke:#181818;stroke-width:1.0;"/><text fill="#000000" font-family="sans-serif" font-size="13" lengthAdjust="spacing" textLength="209" x="134" y="846.4312">movesAvailable 是否还有空格可移动</text><line style="stroke:#181818;stroke-width:1.0;stroke-dasharray:2.0,2.0;" x1="127" x2="169" y1="888.2876" y2="888.2876"/><line style="stroke:#181818;stroke-width:1.0;stroke-dasharray:2.0,2.0;" x1="169" x2="169" y1="888.2876" y2="901.2876"/><line style="stroke:#181818;stroke-width:1.0;stroke-dasharray:2.0,2.0;" x1="122" x2="169" y1="901.2876" y2="901.2876"/><polygon fill="#181818" points="132,897.2876,122,901.2876,132,905.2876,128,901.2876" style="stroke:#181818;stroke-width:1.0;"/><polygon fill="#181818" points="343,924.042,353,928.042,343,932.042,347,928.042" style="stroke:#181818;stroke-width:1.0;"/><line style="stroke:#181818;stroke-width:1.0;" x1="122" x2="349" y1="928.042" y2="928.042"/><text fill="#000000" font-family="sans-serif" font-size="13" lengthAdjust="spacing" textLength="214" x="129" y="923.1855">send 不可移动则将分数发送到数据库</text><polygon fill="#181818" points="133,938.042,123,942.042,133,946.042,129,942.042" style="stroke:#181818;stroke-width:1.0;"/><line style="stroke:#181818;stroke-width:1.0;stroke-dasharray:2.0,2.0;" x1="127" x2="359" y1="942.042" y2="942.042"/><line style="stroke:#181818;stroke-width:1.0;stroke-dasharray:2.0,2.0;" x1="122" x2="164" y1="961.042" y2="961.042"/><line style="stroke:#181818;stroke-width:1.0;stroke-dasharray:2.0,2.0;" x1="164" x2="164" y1="961.042" y2="974.042"/><line style="stroke:#181818;stroke-width:1.0;stroke-dasharray:2.0,2.0;" x1="117" x2="164" y1="974.042" y2="974.042"/><polygon fill="#181818" points="127,970.042,117,974.042,127,978.042,123,974.042" style="stroke:#181818;stroke-width:1.0;"/><polygon fill="#181818" points="423,979.042,433,983.042,423,987.042,427,983.042" style="stroke:#181818;stroke-width:1.0;"/><line style="stroke:#181818;stroke-width:1.0;stroke-dasharray:2.0,2.0;" x1="112" x2="429" y1="983.042" y2="983.042"/><line style="stroke:#181818;stroke-width:1.0;stroke-dasharray:2.0,2.0;" x1="445" x2="487" y1="1002.042" y2="1002.042"/><line style="stroke:#181818;stroke-width:1.0;stroke-dasharray:2.0,2.0;" x1="487" x2="487" y1="1002.042" y2="1015.042"/><line style="stroke:#181818;stroke-width:1.0;stroke-dasharray:2.0,2.0;" x1="440" x2="487" y1="1015.042" y2="1015.042"/><polygon fill="#181818" points="450,1011.042,440,1015.042,450,1019.042,446,1015.042" style="stroke:#181818;stroke-width:1.0;"/><polygon fill="#181818" points="123,1020.042,113,1024.042,123,1028.042,119,1024.042" style="stroke:#181818;stroke-width:1.0;"/><line style="stroke:#181818;stroke-width:1.0;stroke-dasharray:2.0,2.0;" x1="117" x2="434" y1="1024.042" y2="1024.042"/><polygon fill="#181818" points="45,1034.042,35,1038.042,45,1042.042,41,1038.042" style="stroke:#181818;stroke-width:1.0;"/><line style="stroke:#181818;stroke-width:1.0;stroke-dasharray:2.0,2.0;" x1="39" x2="106" y1="1038.042" y2="1038.042"/><!--MD5=[fb14dba4af1015891565e3b78ed7ed4f]
@startuml
participant repaint
create Game
repaint -> Game : new
activate Game
Game -> SQL : connect 连接到数据库
activate SQL
SQL - -> Game
deactivate SQL
Game -> Anonymous : mousePressed 监听鼠标单击
activate Anonymous
Anonymous -> Game : initGame 初始化游戏
activate Game
Game -> Game : addRandomTile 添加初始数字
activate Game
create Tile
Game -> Tile : new
activate Tile
Tile - -> Game
deactivate Tile
Game - -> Game
deactivate Game
Game -> Game : addRandomTile 添加第二个初始数字
activate Game
create Tile
Game -> Tile : new
activate Tile
Tile - -> Game
deactivate Tile
Game - -> Game
deactivate Game
Game - -> Anonymous
deactivate Game
Anonymous -> Anonymous : keyPressed 监听键盘
activate Anonymous
Anonymous -> Game : moveUp 以方向上键为例
activate Game
Game -> Game : move
activate Game
Game -> Tile : canMergeWith 判断是否可合成
activate Tile
Tile - -> Game
deactivate Tile
Game -> Tile : mergeWith 与之合成
activate Tile
Tile - -> Game
deactivate Tile
Game -> Game : clearMerged 清除方块的已合并属性
activate Game
Game - -> Game
deactivate Game
Game -> Game : addRandomTile 添加新的数字
activate Game
Game - -> Game
deactivate Game
Game -> Game : movesAvailable 是否还有空格可移动
activate Game
Game - -> Game
deactivate Game
Game -> SQL : send 不可移动则将分数发送到数据库
activate SQL
SQL - -> Game
deactivate SQL
Game - -> Game
deactivate Game
Game - -> Anonymous
deactivate Game
Anonymous - -> Anonymous
deactivate Anonymous
Anonymous - -> Game
deactivate Anonymous
return
@enduml

PlantUML version 1.2022.5(Sat Apr 30 18:55:52 CST 2022)
(GPL source distribution)
Java Runtime: OpenJDK Runtime Environment
JVM: OpenJDK 64-Bit Server VM
Default Encoding: GBK
Language: zh
Country: CN
--></g></svg>